<svg width="1328" height="300" viewBox="0 0 1328 300" fill="none" xmlns="http://www.w3.org/2000/svg">
<g clip-path="url(#clip0_1304_2254)">
<path d="M134.59 203.824H128.062L164.286 96.5601H170.815L134.59 203.824ZM232.014 132.4V100.4H250.062V190H234.318L232.526 180.912C228.174 186.544 221.774 190.768 212.302 190.768C194.638 190.768 181.711 177.84 181.711 156.976C181.711 136.624 194.639 123.44 212.174 123.44C221.262 123.44 227.79 127.024 232.014 132.4ZM216.271 176.048C226.127 176.048 232.271 168.368 232.271 157.232C232.271 145.968 226.127 138.16 216.271 138.16C206.415 138.16 200.142 145.84 200.142 157.104C200.142 168.368 206.415 176.048 216.271 176.048ZM291.318 190.768C269.43 190.768 256.245 177.584 256.245 157.232C256.245 136.752 269.686 123.44 290.038 123.44C309.75 123.44 323.062 135.728 323.318 155.056C323.318 156.976 323.19 159.152 322.806 161.2H275.062V162.096C275.446 171.44 281.461 177.072 290.549 177.072C297.845 177.072 302.966 173.872 304.502 167.728H322.294C320.246 180.528 308.854 190.768 291.318 190.768ZM275.446 149.424H305.142C303.862 141.36 298.358 136.88 290.166 136.88C282.358 136.88 276.47 141.616 275.446 149.424ZM343.495 190L319.816 124.208H339.144L355.016 171.568L370.632 124.208H389.576L365.896 190H343.495ZM400.07 203.824H393.543L429.767 96.5601H436.294L400.07 203.824ZM487.255 123.44C501.847 123.44 513.879 131.248 513.879 153.52V190H495.831V155.056C495.831 144.304 491.478 138.288 482.518 138.288C473.302 138.288 467.798 144.944 467.798 156.208V190H449.751V100.4H467.798V132.272C472.022 127.152 477.911 123.44 487.255 123.44ZM565.315 157.104V124.208H583.363V190H567.363L565.699 182.064C561.475 187.184 555.715 190.768 546.371 190.768C532.803 190.768 520.259 183.984 520.259 160.688V124.208H538.307V158.256C538.307 170.032 542.147 175.792 551.107 175.792C560.067 175.792 565.315 169.264 565.315 157.104ZM629.958 123.44C647.622 123.44 660.422 136.112 660.422 156.976C660.422 177.328 647.623 190.768 629.831 190.768C620.359 190.768 613.831 186.672 609.607 181.04L607.815 190H592.07V100.4H610.118V132.528C614.47 127.28 620.87 123.44 629.958 123.44ZM625.863 176.048C635.719 176.048 642.118 168.368 642.118 157.104C642.118 145.84 635.719 138.16 625.863 138.16C616.007 138.16 609.863 145.84 609.863 156.976C609.863 168.24 616.007 176.048 625.863 176.048ZM674.925 203.824H668.397L704.621 96.5601H711.149L674.925 203.824Z" fill="#F4F4F4"/>
<path d="M772.351 132.4V100.4H790.399V190H774.655L772.863 180.912C768.511 186.544 762.111 190.768 752.639 190.768C734.975 190.768 722.047 177.84 722.047 156.976C722.047 136.624 734.975 123.44 752.511 123.44C761.599 123.44 768.127 127.024 772.351 132.4ZM756.607 176.048C766.463 176.048 772.607 168.368 772.607 157.232C772.607 145.968 766.463 138.16 756.607 138.16C746.751 138.16 740.479 145.84 740.479 157.104C740.479 168.368 746.751 176.048 756.607 176.048ZM831.654 190.768C809.766 190.768 796.582 177.584 796.582 157.232C796.582 136.752 810.022 123.44 830.374 123.44C850.086 123.44 863.398 135.728 863.654 155.056C863.654 156.976 863.526 159.152 863.142 161.2H815.398V162.096C815.782 171.44 821.798 177.072 830.886 177.072C838.182 177.072 843.302 173.872 844.838 167.728H862.63C860.582 180.528 849.19 190.768 831.654 190.768ZM815.782 149.424H845.478C844.198 141.36 838.694 136.88 830.502 136.88C822.694 136.88 816.806 141.616 815.782 149.424ZM883.832 190L860.152 124.208H879.48L895.352 171.568L910.968 124.208H929.912L906.232 190H883.832ZM931.063 171.184V105.776H949.111V124.208H964.087V139.44H949.111V168.24C949.111 172.848 950.903 174.768 955.511 174.768H964.855V190H949.879C937.335 190 931.063 183.728 931.063 171.184ZM1000.5 190.768C979.508 190.768 965.812 177.328 965.812 157.104C965.812 136.88 979.508 123.44 1000.5 123.44C1021.49 123.44 1035.19 136.88 1035.19 157.104C1035.19 177.456 1021.49 190.768 1000.5 190.768ZM1000.5 176.048C1010.61 176.048 1016.88 168.24 1016.88 157.104C1016.88 145.968 1010.61 138.16 1000.5 138.16C990.388 138.16 984.244 145.968 984.244 157.104C984.244 168.24 990.388 176.048 1000.5 176.048ZM1073.41 190.768C1052.42 190.768 1038.72 177.328 1038.72 157.104C1038.72 136.88 1052.42 123.44 1073.41 123.44C1094.4 123.44 1108.1 136.88 1108.1 157.104C1108.1 177.456 1094.4 190.768 1073.41 190.768ZM1073.41 176.048C1083.52 176.048 1089.79 168.24 1089.79 157.104C1089.79 145.968 1083.52 138.16 1073.41 138.16C1063.3 138.16 1057.15 145.968 1057.15 157.104C1057.15 168.24 1063.3 176.048 1073.41 176.048ZM1114.19 190V100.4H1132.24V190H1114.19ZM1137.91 168.112H1155.06C1155.7 173.872 1160.69 177.84 1169.52 177.84C1177.07 177.84 1181.68 175.408 1181.68 170.8C1181.68 165.424 1177.2 165.04 1166.58 163.632C1151.22 161.84 1139.31 158.384 1139.31 144.816C1139.31 131.76 1150.71 123.184 1167.6 123.312C1185.27 123.312 1197.43 131.12 1198.32 144.56H1181.04C1180.53 139.312 1175.54 136.112 1168.24 136.112C1161.2 136.112 1156.59 138.672 1156.59 142.896C1156.59 147.888 1162.23 148.4 1171.7 149.552C1186.8 151.088 1199.35 154.544 1199.35 169.392C1199.35 182.448 1187.06 190.768 1169.39 190.768C1151.09 190.768 1138.67 182.192 1137.91 168.112Z" fill="#2451B3"/>
</g>
<defs>
<clipPath id="clip0_1304_2254">
<rect width="1072" height="108" fill="white" transform="translate(128 96)"/>
</clipPath>
</defs>
</svg>
